<svg xmlns="http://www.w3.org/2000/svg" width="144.635" height="19.257" viewBox="0 0 144.635 19.257"><defs><style>.a{fill:none;stroke:#000;stroke-linecap:round;stroke-linejoin:round;stroke-width:2px;}</style></defs><g transform="translate(0 0)"><path d="M9.89,10.128c4.812-.572,9.623-1.044,14.458-1.315s9.685-.379,14.543-.232c2.421.093,4.85.217,7.264.449a44.133,44.133,0,0,1,7.256,1.16,18.048,18.048,0,0,1,6.661,3.21,11.534,11.534,0,0,1,4.054,6,11.9,11.9,0,0,0-4.518-5.415,18.566,18.566,0,0,0-6.49-2.646,48.859,48.859,0,0,0-7.086-.874c-2.4-.186-4.8-.294-7.2-.364s-4.812-.124-7.217-.132-4.819,0-7.225,0C19.567,10.081,14.733,10.151,9.89,10.128Z" transform="translate(-2.222 -1.912)"/><path d="M6.663,10.977a17.019,17.019,0,0,1-3.729.248,3.4,3.4,0,0,1-2.46-.843,2.321,2.321,0,0,1,0-2.87,2.367,2.367,0,0,1,1.547-.866,4.007,4.007,0,0,1,1.547.162A20.539,20.539,0,0,1,8.1,8.587c.5.263,1.423.487.866,1.4C8.5,10.676,7.228,10.877,6.663,10.977Z" transform="translate(0.022 -1.485)"/><path d="M19.131,7.8a16.005,16.005,0,0,1-2.994-1.663,3.156,3.156,0,0,1-1.47-1.826,2.151,2.151,0,0,1,1.447-2.243,2.212,2.212,0,0,1,1.6.1,3.489,3.489,0,0,1,1.075.882,18.79,18.79,0,0,1,2.622,3.582c.248.456.843,1.083,0,1.547A3.4,3.4,0,0,1,19.131,7.8Z" transform="translate(-3.301 -0.429)"/><path d="M36.3,6.184A15.827,15.827,0,0,1,33.683,4.01,3.094,3.094,0,0,1,32.6,1.891,2.135,2.135,0,0,1,34.457,0,2.189,2.189,0,0,1,36,.4a3.628,3.628,0,0,1,.9,1.083,18.566,18.566,0,0,1,1.857,4.046c.162.487.627,1.222-.317,1.47C37.713,7.2,36.731,6.509,36.3,6.184Z" transform="translate(-7.364 0.02)"/><path d="M27.739,12.487a15.472,15.472,0,0,1-1.586,3.032,3.148,3.148,0,0,1-1.826,1.547,2.143,2.143,0,0,1-2.181-3A3.574,3.574,0,0,1,23,12.959a18.566,18.566,0,0,1,3.551-2.692c.441-.263,1.06-.874,1.5,0C28.4,10.894,27.932,12,27.739,12.487Z" transform="translate(-4.955 -2.206)"/><path d="M45.311,11.908a15.472,15.472,0,0,1-1.586,3.032A3.094,3.094,0,0,1,41.9,16.449a2.135,2.135,0,0,1-2.236-1.385,2.243,2.243,0,0,1,.054-1.609,3.574,3.574,0,0,1,.859-1.106,18.28,18.28,0,0,1,3.551-2.692c.441-.263,1.06-.874,1.5,0C45.93,10.315,45.466,11.421,45.311,11.908Z" transform="translate(-8.936 -2.068)"/><path d="M159.906,10.141c-4.835,0-9.67-.046-14.5-.108-2.414,0-4.819-.054-7.225,0s-4.819,0-7.217.132-4.8.178-7.2.364a48.859,48.859,0,0,0-7.086.874,18.566,18.566,0,0,0-6.5,2.646,11.836,11.836,0,0,0-4.51,5.415,11.534,11.534,0,0,1,4.061-6,18.048,18.048,0,0,1,6.661-3.21,44.047,44.047,0,0,1,7.248-1.16c2.421-.232,4.85-.356,7.272-.449,4.858-.147,9.708-.054,14.536.232S155.1,9.568,159.906,10.141Z" transform="translate(-23.909 -1.925)"/><path d="M177.582,11a17.019,17.019,0,0,0,3.729.248,3.411,3.411,0,0,0,2.452-.835,2.321,2.321,0,0,0,0-2.878,2.367,2.367,0,0,0-1.547-.866,3.976,3.976,0,0,0-1.547.162,20.755,20.755,0,0,0-4.541,1.779c-.5.263-1.416.487-.859,1.4C175.718,10.7,177.018,10.9,177.582,11Z" transform="translate(-39.628 -1.49)"/><path d="M164.843,7.782a16.385,16.385,0,0,0,2.986-1.663,3.094,3.094,0,0,0,1.47-1.864,2.143,2.143,0,0,0-1.447-2.2,2.212,2.212,0,0,0-1.6.1,3.489,3.489,0,0,0-1.091.882,18.428,18.428,0,0,0-2.6,3.6c-.255.456-.851,1.083,0,1.547A3.509,3.509,0,0,0,164.843,7.782Z" transform="translate(-36.69 -0.425)"/><path d="M147.386,6.524A16.152,16.152,0,0,0,150,4.32a3.148,3.148,0,0,0,1.114-2.112A2.135,2.135,0,0,0,147.687.73a3.52,3.52,0,0,0-.905,1.075,18.728,18.728,0,0,0-1.857,4.046c-.155.487-.627,1.222.325,1.47C145.97,7.507,146.945,6.818,147.386,6.524Z" transform="translate(-32.739 -0.049)"/><path d="M156.034,12.313a16.082,16.082,0,0,0,1.586,3.017,3.133,3.133,0,0,0,1.833,1.547,2.143,2.143,0,0,0,2.236-1.392,2.181,2.181,0,0,0-.062-1.6,3.613,3.613,0,0,0-.851-1.114,18.566,18.566,0,0,0-3.551-2.692c-.449-.263-1.06-.874-1.5,0C155.384,10.688,155.84,11.825,156.034,12.313Z" transform="translate(-35.214 -2.163)"/><path d="M138.594,12.5a16.083,16.083,0,0,0,1.586,3.032,3.133,3.133,0,0,0,1.833,1.547,2.143,2.143,0,0,0,2.236-1.392,2.181,2.181,0,0,0-.062-1.6,3.613,3.613,0,0,0-.851-1.114,18.566,18.566,0,0,0-3.551-2.692c-.449-.263-1.06-.874-1.5,0C137.944,10.9,138.408,12.01,138.594,12.5Z" transform="translate(-31.266 -2.209)"/><path class="a" d="M89.14,11.859a4.03,4.03,0,0,0-1.88-1.64,2.445,2.445,0,0,0-2.4.333,2.568,2.568,0,0,0-.774,2.321,5.717,5.717,0,0,0,1.006,2.321A31.013,31.013,0,0,0,90,20.515c2.553-1.6,5.2-3.3,6.8-5.856a4.641,4.641,0,0,0,.774-1.973,2.274,2.274,0,0,0-.688-1.942,2.793,2.793,0,0,0-2.421-.387,6.3,6.3,0,0,0-3.218,1.833,6.615,6.615,0,0,0-.588.719c-.1.139-.348.774-.5.774C89.906,13.731,89.31,12.122,89.14,11.859Z" transform="translate(-19.013 -2.259)"/></g></svg>